<svg width="24" height="24" viewBox="0 0 24 24" fill="none" xmlns="http://www.w3.org/2000/svg">
    <path d="M0 12C0 5.37258 5.37258 0 12 0C18.6274 0 24 5.37258 24 12C24 18.6274 18.6274 24 12 24C5.37258 24 0 18.6274 0 12Z" fill="white"/>
    <path d="M12.0002 7.09333C13.5024 7.09333 14.5157 7.74222 15.0935 8.28444L17.3513 6.08C15.9646 4.79111 14.1602 4 12.0002 4C8.87129 4 6.16907 5.79556 4.85352 8.40889L7.44018 10.4178C8.08907 8.48889 9.88463 7.09333 12.0002 7.09333Z" fill="#EA4335"/>
    <path d="M19.68 12.1775C19.68 11.5198 19.6267 11.0398 19.5111 10.542H12V13.5109H16.4089C16.32 14.2487 15.84 15.3598 14.7733 16.1064L17.2978 18.062C18.8089 16.6664 19.68 14.6131 19.68 12.1775Z" fill="#4285F4"/>
    <path d="M7.44889 13.5825C7.28 13.0847 7.18222 12.5514 7.18222 12.0003C7.18222 11.4492 7.28 10.9158 7.44 10.4181L4.85333 8.40918C4.31111 9.49362 4 10.7114 4 12.0003C4 13.2892 4.31111 14.507 4.85333 15.5914L7.44889 13.5825Z" fill="#FBBC05"/>
    <path d="M11.9991 19.9998C14.1591 19.9998 15.9724 19.2887 17.2969 18.062L14.7724 16.1065C14.0969 16.5776 13.1902 16.9065 11.9991 16.9065C9.88355 16.9065 8.08799 15.5109 7.44799 13.582L4.86133 15.5909C6.17688 18.2043 8.87022 19.9998 11.9991 19.9998Z" fill="#34A853"/>
</svg>
